<?xml version="1.0" encoding="UTF-8"?>
<svg xmlns="http://www.w3.org/2000/svg" viewBox="0 0 724.39 416.11">
  <defs>
    <style>
      .cls-1, .cls-2, .cls-3, .cls-4, .cls-5, .cls-6 {
        fill: #fff;
      }

      .cls-7 {
        fill: #f5f5f5;
      }

      .cls-2, .cls-8 {
        opacity: .3;
      }

      .cls-9 {
        fill: #455a64;
      }

      .cls-10, .cls-5 {
        opacity: .2;
      }

      .cls-11, .cls-4 {
        opacity: .8;
      }

      .cls-11, .cls-12 {
        fill: #ff725e;
      }

      .cls-3, .cls-13 {
        opacity: .1;
      }

      .cls-14 {
        fill: #e0e0e0;
      }

      .cls-15 {
        fill: #ebebeb;
      }

      .cls-6 {
        opacity: .6;
      }

      .cls-16 {
        fill: #263238;
      }
    </style>
  </defs>
  <g id="Background_Complete" data-name="Background Complete">
    <path class="cls-15" d="m307.83,135.05c.56-8.2-4.05-15.4-14.26-19.25-6.94-2.61-17.38-.98-22.04,4.79-3.01-9.5-16.23-13.92-24.34-8.13,2.33-16.47-4.61-34.21-18.18-43.82-13.57-9.61-33.35-10.01-46.67-.06-13.33,9.95-18.43,29.9-10.58,44.57-6.11,2.23-8,11.55-3.23,15.98-16.69-1.81-45.56.02-45.73,6.87l249.55,4.91c-3.25-8.94-32.23-13.28-64.51-5.86Z"/>
    <path class="cls-14" d="m28.15,283.99c-1.82-5.92-.18-12.76,4.12-17.22,4.3-4.45,11.09-6.32,17.06-4.71-4.02-8.76-7.08-18.74-4.17-27.93,2.92-9.19,14.1-16.11,22.53-11.44-4.91-6.36-.75-17.32,7.14-18.83-6.68-13.14-2.26-30.58,9.22-39.83,11.48-9.25,28.65-10.13,41.6-3.09s21.4,21.22,22.62,35.91c3.24-6.13,10.65-9.76,17.48-8.56,6.83,1.2,12.55,7.14,13.5,14.01,5.64-4.56,14.42-4.67,20.17-.25,2.26-6.16,4.92-12.36,9.51-17.04,4.59-4.68,11.51-7.58,17.82-5.79,6.3,1.8,10.86,9.33,8.13,15.29,6.8-3.43,15.77,5.14,12.66,12.09,9.95-4.58,23.3,3.41,23.96,14.34,14.34-8.67,35.55-2.27,42.7,12.88-6.16-14.75,5.31-33.87,21.23-35.38,15.92-1.5,30.77,15.13,27.48,30.77,5.51-7.41,19.13-5.76,22.71,2.76,8-3.34,17.93-1.35,24.03,4.81,6.1,6.16,7.98,16.12,4.56,24.08"/>
    <path class="cls-15" d="m493.71,53.95c.23-5.25-2.83-9.77-9.41-12.07-4.48-1.56-11.11-.36-14,3.4-2.07-6.02-10.58-8.64-15.67-4.81,1.23-10.55-3.48-21.77-12.3-27.7-8.82-5.93-21.45-5.87-29.81.69-8.36,6.57-11.3,19.39-6.06,28.63-3.87,1.52-4.93,7.5-1.81,10.26-10.69-.9-29.1.73-29.1,5.1l159.46-.77c-2.22-5.66-20.79-7.98-41.29-2.73Z"/>
    <path class="cls-15" d="m134.18,45.42c-3.95-1.38-9.82-.31-12.37,3.01-1.83-5.32-9.35-7.63-13.85-4.25,1.08-9.32-3.07-19.24-10.86-24.47-7.79-5.24-18.95-5.19-26.34.61-7.38,5.8-9.98,17.13-5.36,25.29-3.42,1.34-7.19,7.74-4.44,10.18l81.52.3c.2-4.64-2.5-8.63-8.31-10.66Z"/>
    <path class="cls-7" d="m511.69,120.58c-3.13-1.09-7.78-.25-9.8,2.38-1.45-4.21-7.41-6.04-10.97-3.37.86-7.39-2.43-15.24-8.61-19.39-6.17-4.15-15.02-4.11-20.87.48-5.85,4.6-7.91,13.57-4.24,20.04-2.71,1.06-5.69,6.13-3.51,8.06l64.59.24c.16-3.67-1.98-6.84-6.59-8.45Z"/>
    <path class="cls-15" d="m674.56,75.65c-3.56-1.09-8.84-.25-11.14,2.38-1.65-4.21-8.42-6.04-12.47-3.37.98-7.39-2.77-15.24-9.78-19.39-7.02-4.15-17.07-4.11-23.72.48-6.65,4.6-8.99,13.57-4.82,20.04-3.08,1.07-6.47,6.13-4,8.06l73.42.24c.18-3.67-2.25-6.84-7.49-8.45Z"/>
    <path class="cls-15" d="m669.88,258.12c6.57-8.6-.9-21.68-13.3-23.32,15.14-11.37,15.56-30.6,10.79-46.78-3.37-11.4-8.99-22.7-19.08-31.17-10.09-8.47-25.28-13.66-39.55-11.15-14.27,2.51-26.06,14.01-23.7,25.56-15.79,1.54-28.82,13.68-28.37,26.42-.21-4.57-4.61-8.8-10.18-9.8-5.57-.99-11.79,1.34-14.4,5.41,2.11-14.23-10.4-28.77-27.55-32.82-17.14-4.05-37.04,2.36-46.58,14.48-9.54,12.12-8.45,28.85,1.98,40.49-11.05-2.67-23.89,5.3-23.44,14.55-8.12-1.41-16.76,4.92-15.74,11.54l270.15,38.06c5.05-10.22-7.47-23-21.05-21.48Z"/>
  </g>
  <g id="Floor">
    <g>
      <path class="cls-9" d="m383.98,277.16v.11c-14.07-.07-28.6-.11-43.58-.11-184.47,0-340.4-12.04-340.4,29.13,0,33.73,63.27,64.7,238.09,71.42,14.71.57-19.41,5.29-12.39,19.75,10.59,21.82,117.16,18.47,134.38,18.47,8.16,0,16.12-.22,23.9-.64h0c174.83-6.72,340.4-75.28,340.4-109,0-41.17-155.93-29.13-340.4-29.13Z"/>
      <g>
        <polygon class="cls-5" points="254.97 313.94 543.88 313.94 428.67 356.52 118.01 356.52 254.97 313.94"/>
        <g class="cls-13">
          <path class="cls-1" d="m130.62,352.6c316.42.06,225.56-.24,309.41-.24l12.9-4.81-306.58.15-15.73,4.9Z"/>
        </g>
        <g class="cls-13">
          <path class="cls-1" d="m167.42,341.16c298.52.39,217.24.64,301.09.64l10.42-3.98-298.55-.69-12.97,4.03Z"/>
        </g>
        <g class="cls-13">
          <path class="cls-1" d="m197.72,331.7c315.89.06,216.01-.48,299.72-.48l9.57-3.65-296.44.15-12.85,3.98Z"/>
        </g>
        <g class="cls-13">
          <path class="cls-1" d="m226.45,322.81c208.2-.12,209.59,0,293.44,0l8.43-3.11-294.01.63-7.85,2.48Z"/>
        </g>
      </g>
      <polygon class="cls-10" points="486.06 344.12 612.43 344.12 576.2 363.17 433.21 365.24 486.06 344.12"/>
      <polygon class="cls-10" points="425.07 370.31 503.53 371.07 454.92 394.97 372.23 391.44 425.07 370.31"/>
      <polygon class="cls-10" points="48.32 306.58 117.71 294.65 321.02 294.65 276.82 306.58 48.32 306.58"/>
      <polygon class="cls-10" points="563.14 333.12 589.29 322.02 676.07 322.02 654.81 333.12 563.14 333.12"/>
      <polygon class="cls-10" points="357.84 299.66 561.47 299.66 622.74 279.55 434.94 279.55 357.84 299.66"/>
      <path class="cls-13" d="m274.15,294.53h88.81l27.86-7.52-84.02-.47-32.65,7.99Z"/>
      <path class="cls-3" d="m57.2,330.55h88.81l60.6-18.79-84.02-.47-65.39,19.26Z"/>
      <path class="cls-10" d="m501.33,344.12s-51.61,20.89-51.47,20.88c.14,0,22.21-.32,22.21-.32l44.3-20.56h-15.03Z"/>
      <polygon class="cls-10" points="530.42 344.12 488.6 364.49 509.96 364.13 545.46 344.12 530.42 344.12"/>
      <polygon class="cls-10" points="559.3 344.12 524.93 363.84 540.78 363.73 574.26 344.12 559.3 344.12"/>
      <polygon class="cls-10" points="592.03 344.12 558.38 363.43 576.2 363.17 612.43 344.12 592.03 344.12"/>
      <path class="cls-10" d="m249.03,363.17h172.29l-18.42,7.9-172.24-1.46,18.37-6.43Z"/>
      <polygon class="cls-10" points="583.99 363.43 619.6 344.12 631.56 344.12 597.48 363.43 583.99 363.43"/>
      <polygon class="cls-13" points="500.8 378.95 515.17 371.95 569.29 371.95 559.84 378.95 500.8 378.95"/>
      <polygon class="cls-13" points="79.8 344.12 96.2 337.12 150.32 337.12 136.68 344.12 79.8 344.12"/>
      <polygon class="cls-13" points="309.87 384.04 324.23 377.04 378.35 377.04 368.9 384.04 309.87 384.04"/>
    </g>
  </g>
  <g id="Sun">
    <g>
      <g>
        <circle class="cls-11" cx="307.33" cy="54.62" r="38.95" transform="translate(-4.79 50.56) rotate(-9.33)"/>
        <circle class="cls-4" cx="307.33" cy="54.62" r="38.95" transform="translate(-4.79 50.56) rotate(-9.33)"/>
      </g>
      <g>
        <circle class="cls-12" cx="307.33" cy="54.62" r="34.73"/>
        <circle class="cls-6" cx="307.33" cy="54.62" r="34.73"/>
      </g>
      <g>
        <circle class="cls-12" cx="307.33" cy="54.62" r="28.9" transform="translate(51.39 233.31) rotate(-45)"/>
        <circle class="cls-2" cx="307.33" cy="54.62" r="28.9" transform="translate(51.39 233.31) rotate(-45)"/>
      </g>
      <circle class="cls-12" cx="307.33" cy="54.62" r="23.14"/>
    </g>
  </g>
  <g id="Lines">
    <g>
      <path class="cls-16" d="m556.38,89.24s-.11,0-.33,0c-.23-.01-.55-.03-.97-.06-.42-.04-.94-.18-1.55-.29-.3-.08-.62-.2-.96-.3-.17-.06-.35-.11-.53-.17-.18-.07-.36-.15-.54-.23-1.51-.6-3.25-1.56-5.2-2.77-1.96-1.19-4.12-2.67-6.68-3.97-1.28-.66-2.67-1.25-4.2-1.58-.76-.2-1.55-.24-2.36-.27-.4.03-.81.06-1.22.09-.41.06-.81.17-1.22.25-3.28.84-6.34,2.88-9.56,4.9-1.62,1.01-3.27,2.07-5.09,2.94-1.8.86-3.79,1.58-5.91,1.62-2.13.04-4.2-.7-6.14-1.62-1.94-.94-3.79-2.11-5.65-3.29-1.86-1.18-3.7-2.34-5.62-3.27-1.91-.92-3.94-1.63-6-1.6-2.05.03-4,.73-5.79,1.58-1.79.86-3.45,1.91-5.06,2.91-3.22,2.02-6.31,4.06-9.65,4.91-.42.08-.83.19-1.25.25-.42.03-.84.06-1.25.09-.83-.04-1.64-.08-2.41-.29-1.55-.35-2.97-.95-4.25-1.62-2.58-1.33-4.73-2.82-6.68-4.02-1.94-1.22-3.66-2.19-5.15-2.8-2.97-1.32-4.86-1.08-4.83-1.18,0,0,.11,0,.33,0,.23.01.55.03.97.06.42.04.94.18,1.55.29.3.08.62.2.96.3.17.06.35.11.53.17.18.07.36.15.54.23,1.51.6,3.25,1.56,5.2,2.77,1.96,1.19,4.12,2.67,6.68,3.97,1.28.66,2.67,1.25,4.2,1.58.76.2,1.55.24,2.36.27.4-.03.81-.06,1.22-.09.41-.06.81-.17,1.22-.25,3.28-.84,6.34-2.88,9.56-4.9,1.62-1.01,3.27-2.07,5.09-2.94,1.8-.86,3.79-1.58,5.92-1.62,2.13-.04,4.2.7,6.14,1.62,1.94.94,3.79,2.11,5.65,3.29,1.86,1.18,3.7,2.34,5.62,3.27,1.91.92,3.94,1.63,6,1.59,2.05-.03,4-.73,5.79-1.58,1.79-.86,3.44-1.91,5.06-2.91,3.22-2.02,6.31-4.06,9.65-4.91.42-.08.83-.19,1.25-.25.42-.03.84-.06,1.25-.09.83.04,1.64.08,2.41.29,1.55.35,2.97.95,4.25,1.62,2.58,1.33,4.73,2.82,6.68,4.02,1.94,1.22,3.66,2.19,5.15,2.8,2.97,1.32,4.86,1.08,4.83,1.18Z"/>
      <path class="cls-16" d="m555.58,81.49s-.06-.01-.16-.06c-.12-.05-.27-.12-.45-.2-.39-.18-.97-.46-1.7-.86-1.46-.78-3.44-2.13-5.89-3.77-2.44-1.61-5.51-3.45-9.32-4.26-1.89-.4-3.95-.51-6.02-.13-2.07.37-4.12,1.18-6.1,2.23-1.98,1.05-3.8,2.29-5.64,3.36-1.84,1.07-3.7,1.98-5.6,2.52-1.89.54-3.77.76-5.52.64-1.75-.11-3.34-.65-4.63-1.4-1.29-.73-2.36-1.54-3.36-2.14-1-.6-1.92-1.01-2.7-1.25-.78-.24-1.42-.32-1.85-.36-.43-.03-.66-.02-.66-.04,0,0,.23-.04.66-.03.43.01,1.08.07,1.88.3.8.22,1.74.62,2.76,1.22,1.02.59,2.1,1.39,3.38,2.09,1.27.72,2.82,1.23,4.54,1.33,1.71.11,3.56-.12,5.42-.66,1.86-.54,3.7-1.44,5.52-2.51,1.83-1.07,3.65-2.3,5.65-3.37,1.99-1.06,4.08-1.88,6.19-2.25,2.11-.38,4.22-.26,6.13.15,3.86.84,6.95,2.72,9.38,4.36,2.44,1.67,4.39,3.03,5.82,3.85.71.42,1.28.71,1.66.91.18.09.32.17.44.22.1.05.15.08.15.09Z"/>
    </g>
    <g>
      <path class="cls-16" d="m415.34,193.25s-.11,0-.33,0c-.23-.01-.55-.03-.97-.06-.42-.04-.94-.18-1.55-.29-.3-.08-.62-.2-.96-.3-.17-.06-.35-.11-.53-.17-.18-.07-.36-.15-.54-.23-1.51-.6-3.25-1.56-5.2-2.77-1.96-1.19-4.12-2.67-6.68-3.97-1.28-.66-2.67-1.25-4.2-1.58-.76-.2-1.55-.24-2.36-.27-.4.03-.81.06-1.22.09-.41.06-.81.17-1.22.25-3.28.84-6.34,2.88-9.56,4.9-1.62,1.01-3.27,2.07-5.09,2.94-1.8.86-3.79,1.58-5.91,1.62-2.13.04-4.2-.7-6.14-1.62-1.94-.94-3.79-2.11-5.65-3.29-1.86-1.18-3.7-2.34-5.62-3.27-1.91-.92-3.94-1.63-6-1.6-2.05.03-4,.73-5.79,1.58-1.79.86-3.45,1.91-5.06,2.91-3.22,2.02-6.31,4.06-9.65,4.91-.42.08-.83.19-1.25.25-.42.03-.84.06-1.25.09-.83-.04-1.64-.08-2.41-.29-1.55-.35-2.97-.95-4.25-1.62-2.58-1.33-4.73-2.82-6.68-4.02-1.94-1.22-3.66-2.19-5.15-2.8-2.97-1.32-4.86-1.08-4.83-1.18,0,0,.11,0,.33,0,.23.01.55.03.97.06.42.04.94.18,1.55.29.3.08.62.2.96.3.17.06.35.11.53.17.18.07.36.15.54.23,1.51.6,3.25,1.56,5.2,2.77,1.96,1.19,4.12,2.67,6.68,3.97,1.28.66,2.67,1.25,4.2,1.58.76.2,1.55.24,2.36.27.4-.03.81-.06,1.22-.09.41-.06.81-.17,1.22-.25,3.28-.84,6.34-2.88,9.56-4.9,1.62-1.01,3.27-2.07,5.09-2.94,1.8-.86,3.79-1.58,5.92-1.62,2.13-.04,4.2.7,6.14,1.62,1.94.94,3.79,2.11,5.65,3.29,1.86,1.18,3.7,2.34,5.62,3.27,1.91.92,3.94,1.63,6,1.59,2.05-.03,4-.73,5.79-1.58,1.79-.86,3.44-1.9,5.06-2.91,3.22-2.02,6.31-4.06,9.65-4.91.42-.08.83-.19,1.25-.25.42-.03.84-.06,1.25-.09.83.04,1.64.08,2.41.29,1.55.35,2.97.95,4.25,1.62,2.58,1.33,4.73,2.82,6.68,4.02,1.94,1.22,3.66,2.19,5.15,2.8,2.97,1.32,4.86,1.08,4.83,1.18Z"/>
      <path class="cls-16" d="m414.54,185.5s-.06-.01-.16-.06c-.12-.05-.27-.12-.45-.2-.39-.18-.97-.46-1.7-.86-1.46-.78-3.44-2.13-5.89-3.77-2.44-1.61-5.51-3.45-9.32-4.26-1.89-.4-3.95-.51-6.02-.13-2.07.37-4.12,1.18-6.1,2.23-1.98,1.05-3.8,2.29-5.64,3.36-1.84,1.07-3.7,1.98-5.6,2.52-1.89.54-3.77.76-5.52.64-1.75-.11-3.34-.65-4.63-1.4-1.29-.73-2.36-1.54-3.36-2.14-1-.6-1.92-1.01-2.7-1.25-.78-.24-1.42-.32-1.85-.36-.43-.03-.66-.02-.66-.04,0,0,.23-.04.66-.03.43.01,1.08.07,1.88.3.8.22,1.74.62,2.76,1.22,1.02.59,2.1,1.39,3.38,2.09,1.27.72,2.82,1.23,4.54,1.33,1.71.11,3.56-.12,5.42-.65,1.86-.54,3.7-1.44,5.52-2.51,1.83-1.07,3.65-2.3,5.65-3.37,1.99-1.06,4.08-1.88,6.19-2.25,2.11-.38,4.22-.26,6.13.15,3.86.84,6.95,2.72,9.38,4.36,2.44,1.67,4.39,3.03,5.82,3.85.71.42,1.28.71,1.66.91.18.09.32.17.44.22.1.05.15.08.15.09Z"/>
    </g>
    <g>
      <path class="cls-16" d="m203.24,133.39s-.11,0-.33,0c-.23-.01-.55-.03-.97-.06-.42-.04-.94-.18-1.55-.29-.3-.08-.62-.2-.96-.3-.17-.06-.35-.11-.53-.17-.18-.07-.36-.15-.54-.23-1.51-.6-3.25-1.56-5.2-2.77-1.96-1.19-4.12-2.67-6.68-3.97-1.28-.66-2.67-1.25-4.2-1.58-.76-.2-1.55-.24-2.36-.27-.4.03-.81.06-1.22.09-.41.06-.81.17-1.22.25-3.28.84-6.34,2.88-9.56,4.9-1.62,1.01-3.27,2.07-5.09,2.94-1.8.86-3.79,1.58-5.91,1.62-2.13.04-4.2-.7-6.14-1.62-1.94-.94-3.79-2.11-5.65-3.29-1.86-1.18-3.7-2.34-5.62-3.27-1.91-.92-3.94-1.63-6-1.6-2.05.03-4,.73-5.79,1.58-1.79.86-3.45,1.91-5.06,2.91-3.22,2.02-6.31,4.06-9.65,4.91-.42.08-.83.19-1.25.25-.42.03-.84.06-1.25.09-.83-.04-1.64-.08-2.41-.29-1.55-.35-2.97-.95-4.25-1.62-2.58-1.33-4.73-2.82-6.68-4.02-1.94-1.22-3.66-2.19-5.15-2.8-2.97-1.32-4.86-1.08-4.83-1.18,0,0,.11,0,.33,0,.23.01.55.03.97.06.42.04.94.18,1.55.29.3.08.62.2.96.3.17.06.35.11.53.17.18.07.36.15.54.23,1.51.6,3.25,1.56,5.2,2.77,1.96,1.19,4.12,2.67,6.68,3.97,1.28.66,2.67,1.25,4.2,1.58.76.2,1.55.24,2.36.27.4-.03.81-.06,1.22-.09.41-.06.81-.17,1.22-.25,3.28-.84,6.34-2.88,9.56-4.9,1.62-1.01,3.27-2.07,5.09-2.94,1.8-.86,3.79-1.58,5.92-1.62,2.13-.04,4.2.7,6.14,1.62,1.94.94,3.79,2.11,5.65,3.29,1.86,1.18,3.7,2.34,5.62,3.27,1.91.92,3.94,1.63,6,1.59,2.05-.03,4-.73,5.79-1.58,1.79-.86,3.44-1.9,5.06-2.91,3.22-2.02,6.31-4.06,9.65-4.91.42-.08.83-.19,1.25-.25.42-.03.84-.06,1.25-.09.83.04,1.64.08,2.41.29,1.55.35,2.97.95,4.25,1.62,2.58,1.33,4.73,2.82,6.68,4.02,1.94,1.22,3.66,2.19,5.15,2.8,2.97,1.32,4.86,1.08,4.83,1.18Z"/>
      <path class="cls-16" d="m202.44,125.64s-.06-.01-.16-.06c-.12-.05-.27-.12-.45-.2-.39-.18-.97-.46-1.7-.86-1.46-.78-3.44-2.13-5.89-3.77-2.44-1.61-5.51-3.45-9.32-4.26-1.89-.4-3.95-.51-6.02-.13-2.07.37-4.12,1.18-6.1,2.23-1.98,1.05-3.8,2.29-5.64,3.36-1.84,1.07-3.7,1.98-5.6,2.52-1.89.54-3.77.76-5.52.64-1.75-.11-3.34-.65-4.63-1.4-1.29-.73-2.36-1.54-3.36-2.14-1-.6-1.92-1.01-2.7-1.25-.78-.24-1.42-.32-1.85-.36-.43-.03-.66-.02-.66-.04,0,0,.23-.04.66-.03.43.01,1.08.07,1.88.3.8.23,1.74.62,2.76,1.22,1.02.59,2.1,1.39,3.38,2.09,1.27.72,2.82,1.23,4.54,1.33,1.71.11,3.56-.12,5.42-.65,1.86-.54,3.7-1.44,5.52-2.51,1.83-1.07,3.65-2.3,5.65-3.37,1.99-1.06,4.08-1.88,6.19-2.25,2.11-.38,4.22-.26,6.13.15,3.86.84,6.95,2.72,9.38,4.36,2.44,1.67,4.39,3.03,5.82,3.85.71.42,1.28.71,1.66.91.18.09.32.17.44.22.1.05.15.08.15.09Z"/>
      <path class="cls-16" d="m155.58,141.19s-.07,0-.2.01c-.15,0-.34,0-.58,0-.51,0-1.26-.08-2.21-.26-.95-.2-2.08-.56-3.33-1.14-1.25-.57-2.59-1.39-4.03-2.33-1.44-.95-3-2-4.82-2.89-1.81-.89-3.85-1.65-6.08-2-2.23-.37-4.65-.24-7,.49-2.36.7-4.63,1.93-6.85,3.31-2.23,1.38-4.42,2.77-6.74,3.71-2.32.94-4.74,1.4-7.04,1.31-1.15-.06-2.27-.25-3.3-.63-1.03-.37-1.95-.91-2.81-1.46-.42-.28-.84-.55-1.25-.82-.41-.27-.8-.53-1.22-.72-.84-.4-1.68-.73-2.48-1.04-3.21-1.24-5.87-2.09-7.72-2.62-.93-.25-1.65-.44-2.15-.51-.5-.1-.76-.08-.76-.1,0,0,.07,0,.2,0,.13,0,.33,0,.58.04.51.06,1.24.22,2.18.46,1.87.49,4.54,1.31,7.77,2.53.81.31,1.65.64,2.51,1.03.44.2.85.46,1.26.73.41.27.83.54,1.25.81.85.54,1.76,1.06,2.76,1.42,1,.36,2.09.55,3.22.6,2.25.08,4.63-.38,6.91-1.3,2.29-.92,4.45-2.31,6.69-3.69,2.23-1.38,4.53-2.63,6.93-3.34,2.39-.74,4.87-.87,7.14-.48,2.27.37,4.33,1.15,6.15,2.06,1.83.9,3.4,1.97,4.82,2.93,1.43.96,2.75,1.78,3.99,2.36,1.23.59,2.35.96,3.28,1.18.94.2,1.68.29,2.18.32.24.01.43.02.58.03.13,0,.2.02.2.02Z"/>
    </g>
  </g>
  <g id="Hill">
    <g>
      <g>
        <path class="cls-16" d="m455.04,233.95l5.28-23.27c.04-.18.45-.18.49,0l5.28,23.27h-11.05Z"/>
        <path class="cls-16" d="m467.99,231.22l1.9-8.37c.01-.06.16-.06.18,0l1.9,8.37h-3.98Z"/>
      </g>
      <path class="cls-16" d="m481.3,230.29l3.38-14.9c.03-.11.29-.11.31,0l3.38,14.9h-7.08Z"/>
      <path class="cls-16" d="m498.36,230.66l4.39-19.34c.03-.15.37-.15.41,0l4.39,19.34h-9.19Z"/>
      <path class="cls-16" d="m539.52,238.03l4.39-19.34c.03-.15.37-.15.41,0l4.39,19.34h-9.19Z"/>
      <path class="cls-16" d="m490.29,230.22l2.31-10.2c.02-.08.2-.08.21,0l2.31,10.2h-4.84Z"/>
      <g>
        <path class="cls-16" d="m383.98,243.66l2.69-19.8c.02-.15.23-.15.25,0l2.69,19.8h-5.63Z"/>
        <path class="cls-16" d="m446.74,233.88l3.1-13.66c.02-.1.26-.1.29,0l3.1,13.66h-6.49Z"/>
        <path class="cls-16" d="m393.01,240.31l1.64-7.2c.01-.05.14-.05.15,0l1.64,7.2h-3.42Z"/>
      </g>
      <path class="cls-16" d="m195.64,214.17l5.28-23.27c.04-.18.45-.18.49,0l5.28,23.27h-11.05Z"/>
      <path class="cls-16" d="m209.48,214.39l1.9-8.37c.01-.06.16-.06.18,0l1.9,8.37h-3.98Z"/>
      <path class="cls-16" d="m175.91,218.13l3.38-14.9c.03-.11.29-.11.31,0l3.38,14.9h-7.08Z"/>
      <path class="cls-16" d="m273.33,223.41l3.03-13.37c.02-.1.26-.1.28,0l3.03,13.37h-6.35Z"/>
      <path class="cls-16" d="m286.13,227.69l4.39-19.34c.03-.15.37-.15.41,0l4.39,19.34h-9.19Z"/>
      <path class="cls-16" d="m252.02,215.76l2.31-10.2c.02-.08.2-.08.21,0l2.31,10.2h-4.84Z"/>
      <path class="cls-16" d="m122.89,238.14l2.69-19.8c.02-.15.23-.15.25,0l2.69,19.8h-5.63Z"/>
      <path class="cls-16" d="m186.24,216.83l3.1-13.66c.02-.1.26-.1.29,0l3.1,13.66h-6.49Z"/>
      <path class="cls-16" d="m133.62,233.84l1.64-7.2c.01-.05.14-.05.15,0l1.64,7.2h-3.42Z"/>
      <path class="cls-9" d="m657.04,279.93l-589.69,2.37h0s60.26-66.71,136.95-69.78c76.69-3.08,135.16,34.7,163.29,31.63,23.53-2.57,56.25-10.79,97.88-13.93,16.48-1.24,39.65-.14,56.08,1.65,38.72,4.24,101.21,15.45,135.5,48.07Z"/>
      <g class="cls-10">
        <path d="m657.04,279.93l-589.69,2.37h0s60.26-66.71,136.95-69.78c76.69-3.08,135.16,34.7,163.29,31.63,23.53-2.57,56.25-10.79,97.88-13.93,16.48-1.24,39.65-.14,56.08,1.65,38.72,4.24,101.21,15.45,135.5,48.07Z"/>
      </g>
    </g>
  </g>
  <g id="Plants">
    <path class="cls-16" d="m240.95,287.05c-59.51,0-119.02,1.23-178.54,1.23,0,0,23.46-9.49,35.46-9.01,10.76.43,14.6,3.5,14.6,3.5,0,0,2.39-7.07,23.21-9.16,23.19-2.33,30.18,11.11,30.18,11.11,0,0-.83-5.37,7.09-7.16,7.93-1.79,11.26,5.22,11.26,5.22,0,0,1.67-16.98,9.59-14.72,7.93,2.26,8.76,16.66,8.76,16.66,0,0,3.75-10.25,7.09-7.26,3.34,2.99,4.17,7.26,4.17,7.26l27.11,2.34Z"/>
    <path class="cls-16" d="m595.74,286.54c-44.06,0-96.41-1.32-140.47-1.32,0,0,17.37-10.05,26.25-9.54,7.96.45,10.81,3.7,10.81,3.7,0,0,1.77-7.49,17.18-9.7,17.17-2.47,22.35,11.77,22.35,11.77,0,0-.62-5.69,5.25-7.58,5.87-1.89,8.34,5.52,8.34,5.52,0,0,1.24-17.98,7.1-15.58,5.87,2.39,6.49,17.64,6.49,17.64,0,0,2.78-10.85,5.25-7.69,2.47,3.16,3.09,7.69,3.09,7.69l28.36,5.09Z"/>
    <g>
      <g>
        <path class="cls-9" d="m612.23,301.73c-.5-10.36-8.74-19.23-17.28-18.59-8.53.64-15.81,10.67-15.26,21.03-3.95-3.64-9.21-5.1-14.07-3.9-4.86,1.2-9.23,5.04-11.69,10.27-4.25-5.94-11.03-9.05-17.45-8-6.42,1.04-12.29,6.2-15.11,13.29l106.45,1.03c-.93-4.62-2.03-9.37-4.68-12.85-2.75-3.62-7.7-5.27-10.91-2.27Z"/>
        <path class="cls-9" d="m638.23,310.24c-3.29-.18-8.1,3.12-10.02,6.61l18.71.18c-.5-4.17-4.03-6.53-8.69-6.79Z"/>
        <path class="cls-9" d="m628.21,316.85h-.39c.04.18.07.36.11.54.08-.18.18-.36.28-.54Z"/>
      </g>
      <g class="cls-8">
        <path d="m612.23,301.73c-.5-10.36-8.74-19.23-17.28-18.59-8.53.64-15.81,10.67-15.26,21.03-3.95-3.64-9.21-5.1-14.07-3.9-4.86,1.2-9.23,5.04-11.69,10.27-4.25-5.94-11.03-9.05-17.45-8-6.42,1.04-12.29,6.2-15.11,13.29l106.45,1.03c-.93-4.62-2.03-9.37-4.68-12.85-2.75-3.62-7.7-5.27-10.91-2.27Z"/>
        <path d="m638.23,310.24c-3.29-.18-8.1,3.12-10.02,6.61l18.71.18c-.5-4.17-4.03-6.53-8.69-6.79Z"/>
        <path d="m628.21,316.85h-.39c.04.18.07.36.11.54.08-.18.18-.36.28-.54Z"/>
      </g>
    </g>
    <g>
      <path class="cls-9" d="m207.81,359.95l5.28-23.27c.04-.18.45-.18.49,0l5.28,23.27h-11.05Z"/>
      <path class="cls-9" d="m221.65,360.18l1.9-8.37c.01-.06.16-.06.18,0l1.9,8.37h-3.98Z"/>
    </g>
    <g>
      <path class="cls-16" d="m63.16,335.44l5.28-23.27c.04-.18.45-.18.49,0l5.28,23.27h-11.05Z"/>
      <path class="cls-16" d="m77.01,335.67l1.9-8.37c.01-.06.16-.06.18,0l1.9,8.37h-3.98Z"/>
    </g>
    <g>
      <path class="cls-16" d="m468.67,334.85l5.28-23.27c.04-.18.45-.18.49,0l5.28,23.27h-11.05Z"/>
      <path class="cls-16" d="m482.51,335.07l1.9-8.37c.01-.06.16-.06.18,0l1.9,8.37h-3.98Z"/>
    </g>
    <g>
      <path class="cls-16" d="m176.8,307.97l5.28-23.27c.04-.18.45-.18.49,0l5.28,23.27h-11.05Z"/>
      <path class="cls-16" d="m190.64,308.19l1.9-8.37c.01-.06.16-.06.18,0l1.9,8.37h-3.98Z"/>
    </g>
    <g>
      <path class="cls-16" d="m336.22,398.05l4.02-17.69c.03-.13.34-.13.37,0l4.02,17.69h-8.4Z"/>
      <path class="cls-16" d="m348.74,398.27l1.9-8.37c.01-.06.16-.06.18,0l1.9,8.37h-3.98Z"/>
      <path class="cls-16" d="m332.35,400.32l1.33-5.84s.11-.04.12,0l1.33,5.84h-2.78Z"/>
    </g>
    <g>
      <path class="cls-16" d="m596.84,319.43l4.02-17.69c.03-.13.34-.13.37,0l4.02,17.69h-8.4Z"/>
      <path class="cls-16" d="m609.36,319.66l1.9-8.37c.01-.06.16-.06.18,0l1.9,8.37h-3.98Z"/>
      <path class="cls-16" d="m592.97,321.7l1.33-5.84s.11-.04.12,0l1.33,5.84h-2.78Z"/>
    </g>
    <g>
      <path class="cls-16" d="m223.12,307.53l4.02-17.69c.03-.13.34-.13.37,0l4.02,17.69h-8.4Z"/>
      <path class="cls-16" d="m235.64,307.76l1.9-8.37c.01-.06.16-.06.18,0l1.9,8.37h-3.98Z"/>
      <path class="cls-16" d="m219.24,309.8l1.33-5.84s.11-.04.12,0l1.33,5.84h-2.78Z"/>
    </g>
  </g>
  <g id="Houses">
    <g>
      <rect class="cls-14" x="247.56" y="317.29" width="79.16" height="16.09"/>
      <polygon class="cls-12" points="258.47 306.75 247.56 317.29 326.72 317.29 335.79 306.75 258.47 306.75"/>
      <polygon class="cls-14" points="326.72 333.38 344.11 333.38 344.11 317.29 335.79 306.75 326.72 317.29 326.72 333.38"/>
      <polygon class="cls-8" points="326.72 333.38 344.11 333.38 344.11 317.29 335.79 306.75 326.72 317.29 326.72 333.38"/>
      <rect class="cls-16" x="279.47" y="322.66" width="7.34" height="11.12"/>
      <rect class="cls-16" x="271.6" y="321.67" width="3.66" height="3.66"/>
      <rect class="cls-16" x="263.87" y="321.67" width="3.66" height="3.66"/>
      <rect class="cls-16" x="256.14" y="321.67" width="3.66" height="3.66"/>
      <rect class="cls-16" x="307.33" y="321.67" width="3.66" height="3.66"/>
      <rect class="cls-16" x="315.83" y="321.67" width="3.66" height="3.66"/>
      <rect class="cls-16" x="299.6" y="321.67" width="3.66" height="3.66"/>
      <rect class="cls-16" x="291.87" y="321.67" width="3.66" height="3.66"/>
    </g>
    <g>
      <rect class="cls-14" x="60.02" y="288.04" width="25.42" height="5.17"/>
      <polygon class="cls-12" points="63.52 284.66 60.02 288.04 85.44 288.04 88.35 284.66 63.52 284.66"/>
      <polygon class="cls-14" points="85.44 293.21 91.02 293.21 91.02 288.04 88.35 284.66 85.44 288.04 85.44 293.21"/>
      <polygon class="cls-8" points="85.44 293.21 91.02 293.21 91.02 288.04 88.35 284.66 85.44 288.04 85.44 293.21"/>
      <rect class="cls-16" x="70.26" y="289.77" width="2.36" height="3.57"/>
      <rect class="cls-16" x="67.74" y="289.45" width="1.18" height="1.18"/>
      <rect class="cls-16" x="65.25" y="289.45" width="1.18" height="1.18"/>
      <rect class="cls-16" x="62.77" y="289.45" width="1.18" height="1.18"/>
      <rect class="cls-16" x="79.21" y="289.45" width="1.18" height="1.18"/>
      <rect class="cls-16" x="81.94" y="289.45" width="1.18" height="1.18"/>
      <rect class="cls-16" x="76.73" y="289.45" width="1.18" height="1.18"/>
      <rect class="cls-16" x="74.25" y="289.45" width="1.18" height="1.18"/>
    </g>
    <g>
      <polygon class="cls-14" points="113.28 312.7 113.28 301.65 123.73 294.61 134.66 301.65 134.66 312.66 113.28 312.7"/>
      <polygon class="cls-12" points="153.84 294.61 123.73 294.61 134.66 301.65 163.9 301.65 153.84 294.61"/>
      <rect class="cls-14" x="134.66" y="301.65" width="29.23" height="11.01"/>
      <rect class="cls-9" x="120.77" y="308.01" width="4.34" height="4.69"/>
      <rect class="cls-9" x="115.78" y="308.01" width="2.82" height="1.97"/>
      <rect class="cls-9" x="127.3" y="308.01" width="2.82" height="1.97"/>
      <rect class="cls-9" x="139.8" y="306.11" width="9.45" height="6.59"/>
      <rect class="cls-9" x="150.56" y="306.11" width="9.45" height="6.59"/>
      <rect class="cls-8" x="134.66" y="301.65" width="29.23" height="11.01"/>
    </g>
    <g>
      <polygon class="cls-14" points="516.1 341.51 516.1 328.5 528.4 320.21 541.27 328.5 541.27 341.45 516.1 341.51"/>
      <polygon class="cls-12" points="548.76 320.21 528.4 320.21 541.27 328.5 559.32 328.5 548.76 320.21"/>
      <rect class="cls-14" x="541.27" y="328.5" width="17.21" height="12.96"/>
      <rect class="cls-9" x="526.17" y="336.29" width="3.33" height="5.22"/>
      <rect class="cls-9" x="519.04" y="335.98" width="3.32" height="2.32"/>
      <rect class="cls-9" x="532.6" y="335.98" width="3.32" height="2.32"/>
      <rect class="cls-8" x="541.27" y="328.5" width="17.21" height="12.96"/>
    </g>
    <g>
      <polygon class="cls-14" points="277.48 294.32 277.48 288.56 282.93 284.89 288.63 288.56 288.63 294.3 277.48 294.32"/>
      <polygon class="cls-12" points="291.94 284.89 282.93 284.89 288.63 288.56 296.62 288.56 291.94 284.89"/>
      <rect class="cls-14" x="288.63" y="288.56" width="7.62" height="5.74"/>
      <rect class="cls-9" x="281.94" y="292.01" width="1.47" height="2.31"/>
      <rect class="cls-9" x="278.78" y="291.87" width="1.47" height="1.03"/>
      <rect class="cls-9" x="284.79" y="291.87" width="1.47" height="1.03"/>
      <rect class="cls-8" x="288.63" y="288.56" width="7.62" height="5.74"/>
    </g>
  </g>
  <g id="Windmills">
    <g>
      <polygon class="cls-12" points="376.13 142.59 374.75 311.14 388.04 311.14 381.38 142.59 376.13 142.59"/>
      <path class="cls-8" d="m376.05,152.53s2.56,1.42,5.72,0l-.19-5.79-5.43.67-.1,5.12Z"/>
      <g>
        <path class="cls-12" d="m362.51,152.45c-1.49,1.25-32.45,45.15-34.97,49.49-2.83,4.88-.09,8.03-.09,8.03l51.01-61.97-3.12-3.52-6.11,7.3s-5.23-.58-6.72.67Z"/>
        <path class="cls-8" d="m327.54,201.94c-.41.72-.74,1.41-1.01,2.07l2.2-2.61,40.5-49.62s-5.23-.58-6.72.67c-1.49,1.25-32.45,45.15-34.97,49.49Z"/>
      </g>
      <g>
        <path class="cls-12" d="m381.76,126.88c-.2-1.94-19.16-52.2-21.34-56.72-2.45-5.08-6.59-4.58-6.59-4.58l22.67,77,4.67-.61-2.62-9.16s3.42-4,3.22-5.94Z"/>
        <path class="cls-8" d="m360.42,70.16c-.37-.74-.75-1.4-1.15-2l.93,3.28,18.35,61.37s3.42-4,3.22-5.94c-.2-1.94-19.16-52.2-21.34-56.72Z"/>
      </g>
      <g>
        <path class="cls-12" d="m388.29,157.8c1.6,1.11,52.07,19.51,56.92,20.81,5.45,1.46,7.77-2.02,7.77-2.02l-73.16-33.03-2.58,3.93,8.65,3.99s.81,5.2,2.41,6.31Z"/>
        <path class="cls-8" d="m445.21,178.6c.8.21,1.55.35,2.26.43l-3.09-1.44-58.49-26.11s.81,5.2,2.41,6.31c1.6,1.11,52.07,19.51,56.92,20.81Z"/>
        <path class="cls-16" d="m452.97,176.59c-.03.07-16.17-7.14-36.04-16.11-19.88-8.97-35.96-16.29-35.93-16.36.03-.07,16.16,7.14,36.04,16.11,19.87,8.97,35.95,16.29,35.92,16.36Z"/>
      </g>
      <g>
        <path class="cls-12" d="m385.61,142.76c0,3.91-3.17,7.09-7.09,7.09s-7.09-3.17-7.09-7.09,3.17-7.09,7.09-7.09,7.09,3.17,7.09,7.09Z"/>
        <path class="cls-16" d="m385.61,142.76s0-.63-.27-1.72c-.27-1.07-.98-2.63-2.58-3.85-.79-.59-1.79-1.1-2.95-1.3-1.15-.19-2.44-.16-3.67.31-.62.22-1.22.54-1.76.95-.55.4-1.06.9-1.47,1.48-.86,1.14-1.34,2.61-1.35,4.12.01,1.51.5,2.98,1.35,4.12.41.58.92,1.08,1.47,1.48.55.41,1.14.74,1.76.95,1.23.47,2.52.51,3.67.31,1.15-.2,2.15-.71,2.95-1.3,1.6-1.21,2.31-2.78,2.58-3.85.27-1.09.23-1.72.27-1.72,0,0,0,.16,0,.45,0,.15,0,.33-.04.55-.03.22-.06.47-.13.74-.25,1.09-.94,2.7-2.57,3.96-.81.62-1.83,1.14-3.01,1.36-1.18.21-2.51.18-3.78-.3-.64-.22-1.26-.55-1.83-.98-.57-.41-1.1-.93-1.53-1.53-.89-1.18-1.39-2.7-1.41-4.26.01-1.56.52-3.08,1.41-4.26.43-.6.95-1.11,1.53-1.53.57-.42,1.19-.76,1.83-.98,1.27-.48,2.6-.51,3.78-.3,1.18.22,2.21.74,3.01,1.36,1.63,1.26,2.32,2.87,2.57,3.96.08.27.1.52.13.74.04.22.04.4.04.55,0,.3,0,.45,0,.45Z"/>
      </g>
    </g>
    <g>
      <polygon class="cls-12" points="167.25 95.66 165.9 292.29 178.83 292.29 172.35 95.66 167.25 95.66"/>
      <g>
        <path class="cls-12" d="m174.9,111.09c.95,1.64,37.84,38.67,41.57,41.81,4.2,3.53,7.68,1.43,7.68,1.43l-50.85-59.28-3.9,2.4,5.98,7.08s-1.43,4.91-.48,6.55Z"/>
        <path class="cls-8" d="m216.47,152.9c.62.51,1.23.95,1.82,1.31l-2.13-2.54-40.77-47.14s-1.43,4.91-.48,6.55c.95,1.64,37.84,38.67,41.57,41.81Z"/>
      </g>
      <g>
        <path class="cls-12" d="m153.62,88.35c-1.89-.13-53.24,9.62-57.94,10.95-5.28,1.5-5.49,5.55-5.49,5.55l77.6-8.83.2-4.57-9.21.97s-3.26-3.94-5.15-4.08Z"/>
        <path class="cls-8" d="m95.68,99.31c-.77.23-1.47.48-2.11.77l3.3-.34,61.89-7.3s-3.26-3.94-5.15-4.08c-1.89-.13-53.24,9.62-57.94,10.95Z"/>
      </g>
      <g>
        <path class="cls-12" d="m184.35,87.28c1.33-1.35,27.42-46.64,29.48-51.06,2.31-4.98-.63-7.78-.63-7.78l-43.91,64.58,3.34,3.14,5.27-7.62s5.12.1,6.45-1.25Z"/>
        <path class="cls-8" d="m213.83,36.21c.33-.74.59-1.43.79-2.1l-1.9,2.72-34.83,51.68s5.12.1,6.45-1.25c1.33-1.35,27.42-46.64,29.48-51.06Z"/>
        <path class="cls-16" d="m213.2,28.43c.06.04-9.55,14.3-21.48,31.84-11.93,17.55-21.64,31.73-21.7,31.69-.06-.04,9.55-14.3,21.48-31.84,11.92-17.54,21.64-31.73,21.7-31.69Z"/>
      </g>
      <path class="cls-8" d="m167.17,105.33s2.49,1.38,5.56,0l-.18-5.63-5.28.65-.1,4.99Z"/>
      <g>
        <path class="cls-12" d="m171.14,87.29c3.75.66,6.26,4.23,5.61,7.98-.66,3.75-4.23,6.26-7.98,5.61-3.75-.66-6.26-4.23-5.61-7.98.66-3.75,4.23-6.26,7.98-5.61Z"/>
        <path class="cls-16" d="m171.14,87.29s-.6-.11-1.69-.03c-1.07.08-2.69.5-4.12,1.83-.7.66-1.35,1.54-1.74,2.61-.38,1.06-.56,2.31-.32,3.57.1.63.31,1.26.62,1.85.29.6.69,1.16,1.17,1.66.95,1.01,2.27,1.72,3.72,1.99,1.45.24,2.94.02,4.17-.61.62-.3,1.19-.7,1.67-1.16.49-.46.9-.97,1.21-1.53.66-1.1.91-2.33.91-3.46,0-1.14-.32-2.18-.75-3.04-.89-1.74-2.28-2.68-3.25-3.12-1-.45-1.61-.51-1.6-.54,0,0,.15.02.43.07.14.02.32.06.52.13.2.06.44.13.69.25,1,.42,2.43,1.36,3.36,3.13.46.88.79,1.94.8,3.12,0,1.16-.25,2.43-.92,3.57-.32.58-.74,1.11-1.24,1.59-.49.48-1.07.89-1.72,1.21-1.28.65-2.82.88-4.32.63-1.5-.27-2.87-1.01-3.85-2.06-.5-.51-.91-1.1-1.21-1.72-.31-.61-.53-1.26-.63-1.91-.24-1.3-.05-2.58.35-3.67.41-1.1,1.08-1.99,1.81-2.66,1.48-1.35,3.14-1.75,4.23-1.8.27-.03.52-.01.73,0,.21,0,.39.02.53.05.29.04.43.08.43.08Z"/>
      </g>
    </g>
    <g>
      <polygon class="cls-12" points="576.15 94.37 574.59 321.7 589.54 321.7 582.05 94.37 576.15 94.37"/>
      <path class="cls-8" d="m576.06,105.55s2.88,1.6,6.43,0l-.21-6.51-6.1-1.71-.12,8.22Z"/>
      <path class="cls-12" d="m559.54,95.86c-2.04.81-50.56,36.82-54.78,40.57-4.75,4.22-2.92,8.54-2.92,8.54l76.31-48.25-2.09-4.86-9.1,5.65s-5.38-2.46-7.42-1.65Z"/>
      <path class="cls-8" d="m504.76,136.42c-.69.63-1.29,1.24-1.8,1.86l3.27-2.02,60.74-38.76s-5.38-2.46-7.42-1.65c-2.04.81-50.56,36.82-54.78,40.57Z"/>
      <path class="cls-12" d="m589.11,75.32c.47-2.14-2.1-62.51-2.84-68.11-.83-6.29-5.44-7.21-5.44-7.21l-2.88,90.24,5.2.99.43-10.7s5.06-3.07,5.53-5.21Z"/>
      <path class="cls-8" d="m586.27,7.21c-.13-.92-.31-1.76-.52-2.54l-.16,3.83-2,72.03s5.06-3.07,5.53-5.21c.47-2.14-2.1-62.51-2.84-68.11Z"/>
      <path class="cls-12" d="m585.2,110.64c1.32,1.75,48.76,39.17,53.49,42.26,5.31,3.48,9.01.58,9.01.58l-66.54-61.03-4.14,3.29,7.84,7.31s-.97,5.84.35,7.59Z"/>
      <path class="cls-8" d="m638.69,152.91c.79.5,1.54.92,2.26,1.26l-2.8-2.62-53.3-48.49s-.97,5.84.35,7.59c1.32,1.75,48.76,39.17,53.49,42.26Z"/>
      <path class="cls-16" d="m647.7,153.49c-.06.06-14.76-13.32-32.83-29.89-18.08-16.58-32.68-30.06-32.62-30.13.06-.06,14.76,13.32,32.84,29.9,18.07,16.57,32.68,30.06,32.62,30.12Z"/>
      <path class="cls-12" d="m587.63,93.64c-1.38,4.18-5.89,6.46-10.07,5.08-4.18-1.38-6.46-5.89-5.08-10.07,1.38-4.18,5.88-6.46,10.07-5.08,4.18,1.38,6.46,5.89,5.08,10.07Z"/>
      <path class="cls-16" d="m587.63,93.64s.23-.67.32-1.93c.08-1.23-.12-3.16-1.41-5.02-.64-.91-1.53-1.8-2.69-2.42-1.15-.61-2.55-1.03-4.03-.96-.74.01-1.49.15-2.22.4-.73.23-1.45.59-2.09,1.06-1.32.92-2.35,2.31-2.9,3.92-.52,1.62-.52,3.36,0,4.88.24.77.6,1.48,1.05,2.1.44.63.96,1.19,1.55,1.64,1.15.93,2.52,1.43,3.81,1.62,1.3.19,2.55,0,3.61-.35,2.14-.73,3.45-2.16,4.11-3.2.68-1.06.85-1.76.89-1.74,0,0-.05.17-.16.48-.05.16-.13.35-.24.57-.11.22-.22.48-.4.74-.65,1.07-1.96,2.55-4.14,3.33-1.08.37-2.36.58-3.7.39-1.33-.19-2.74-.69-3.93-1.65-.61-.46-1.15-1.03-1.61-1.68-.47-.64-.84-1.38-1.09-2.17-.54-1.57-.54-3.37,0-5.05.56-1.67,1.64-3.11,3-4.06.67-.49,1.41-.85,2.17-1.09.76-.25,1.53-.39,2.29-.4,1.53-.06,2.96.37,4.14,1.01,1.19.65,2.1,1.57,2.74,2.51,1.3,1.92,1.47,3.89,1.35,5.14-.01.32-.07.6-.12.84-.04.24-.09.44-.15.6-.1.32-.16.48-.16.48Z"/>
    </g>
  </g>
</svg>